<svg viewBox="0 0 1600 1000" xmlns="http://www.w3.org/2000/svg" role="img" aria-label="Manje turned M clothing mark logo concept" font-family="Arial, sans-serif">
  <defs>
    <linearGradient id="goldFold" x1="120" y1="300" x2="340" y2="72" gradientUnits="userSpaceOnUse">
      <stop offset="0" stop-color="#B07D08"/>
      <stop offset="0.58" stop-color="#F5C518"/>
      <stop offset="1" stop-color="#FFE37A"/>
    </linearGradient>
    <linearGradient id="greenFold" x1="70" y1="66" x2="352" y2="300" gradientUnits="userSpaceOnUse">
      <stop offset="0" stop-color="#1A6B4A"/>
      <stop offset="1" stop-color="#0D3B2E"/>
    </linearGradient>
    <filter id="softShadow" x="-20%" y="-20%" width="140%" height="140%">
      <feDropShadow dx="0" dy="14" stdDeviation="18" flood-color="#0D3B2E" flood-opacity="0.10"/>
    </filter>
  </defs>

  <rect width="1600" height="1000" fill="#F8FAF9"/>
  <text x="80" y="94" font-size="46" font-weight="800" fill="#0D3B2E">Manje Turned M Clothing-Mark Concept</text>
  <text x="82" y="130" font-size="20" font-weight="500" fill="#426356">The clothing badge kept as an abstract M, turned upright and tightened so it reads cleaner as a logo mark.</text>

  <g transform="translate(80 176)">
    <rect width="1440" height="430" rx="38" fill="#FFFFFF" stroke="#DDE7E2" stroke-width="2"/>
    <text x="56" y="64" font-size="23" font-weight="800" fill="#0D3B2E">Primary M mark</text>
    <text x="56" y="97" font-size="20" font-weight="500" fill="#426356">No Nje wordmark here. This keeps the M and makes the folded badge feel deliberate, balanced, and premium.</text>

    <g filter="url(#softShadow)" transform="translate(102 126) scale(0.72)">
      <rect width="430" height="318" rx="72" fill="#F8FAF9"/>
      <g transform="translate(24 28)">
        <path d="M72 262L104 54H154L122 262Z" fill="#0D3B2E"/>
        <path d="M121 262L153 54H202L170 262Z" fill="#1A6B4A"/>
        <path d="M137 262L223 78C229 66 247 66 253 78L303 180L356 54H404L315 262H271L236 181L194 262Z" fill="url(#goldFold)"/>
        <path d="M219 120L272 240L351 54H398L310 262H266L234 188L195 262H150Z" fill="#0D3B2E" opacity="0.98"/>
        <path d="M284 262L356 54H407L335 262Z" fill="url(#greenFold)"/>
        <path d="M333 262L368 54H416L381 262Z" fill="#0D3B2E"/>
        <path d="M96 37H166" stroke="#B07D08" stroke-width="13" stroke-linecap="round"/>
        <path d="M344 37H414" stroke="#F5C518" stroke-width="13" stroke-linecap="round"/>
      </g>
    </g>

    <g transform="translate(492 144)">
      <text x="0" y="134" font-size="118" font-weight="800" fill="#0D3B2E" letter-spacing="-4">Manje</text>
      <text x="6" y="184" font-size="16" font-weight="750" fill="#1A6B4A" letter-spacing="2.1">ABSTRACT M FROM THE MASCOT BADGE</text>
    </g>

    <g transform="translate(1115 105)">
      <rect width="250" height="250" rx="54" fill="#0D3B2E"/>
      <text x="30" y="48" font-size="22" font-weight="800" fill="#F8FAF9">Clothing-pin feel</text>
      <text x="30" y="78" font-size="14" font-weight="700" fill="#BFD3CB">turned into an M</text>
      <g transform="translate(30 96) scale(0.43)">
        <path d="M72 262L104 54H154L122 262Z" fill="#F8FAF9" opacity="0.96"/>
        <path d="M121 262L153 54H202L170 262Z" fill="#CFE0DA"/>
        <path d="M137 262L223 78C229 66 247 66 253 78L303 180L356 54H404L315 262H271L236 181L194 262Z" fill="url(#goldFold)"/>
        <path d="M219 120L272 240L351 54H398L310 262H266L234 188L195 262H150Z" fill="#F8FAF9" opacity="0.96"/>
        <path d="M284 262L356 54H407L335 262Z" fill="#CFE0DA"/>
        <path d="M333 262L368 54H416L381 262Z" fill="#E9F2EF"/>
        <path d="M96 37H166" stroke="#B07D08" stroke-width="13" stroke-linecap="round"/>
        <path d="M344 37H414" stroke="#F5C518" stroke-width="13" stroke-linecap="round"/>
      </g>
    </g>
  </g>

  <g transform="translate(80 660)">
    <rect width="340" height="240" rx="34" fill="#FFFFFF" stroke="#DDE7E2" stroke-width="2"/>
    <text x="34" y="52" font-size="23" font-weight="800" fill="#0D3B2E">App icon check</text>
    <g transform="translate(100 76) scale(0.31)">
      <rect width="430" height="318" rx="72" fill="#F8FAF9"/>
      <g transform="translate(24 28)">
        <path d="M72 262L104 54H154L122 262Z" fill="#0D3B2E"/>
        <path d="M121 262L153 54H202L170 262Z" fill="#1A6B4A"/>
        <path d="M137 262L223 78C229 66 247 66 253 78L303 180L356 54H404L315 262H271L236 181L194 262Z" fill="url(#goldFold)"/>
        <path d="M219 120L272 240L351 54H398L310 262H266L234 188L195 262H150Z" fill="#0D3B2E" opacity="0.98"/>
        <path d="M284 262L356 54H407L335 262Z" fill="url(#greenFold)"/>
        <path d="M333 262L368 54H416L381 262Z" fill="#0D3B2E"/>
        <path d="M96 37H166" stroke="#B07D08" stroke-width="13" stroke-linecap="round"/>
        <path d="M344 37H414" stroke="#F5C518" stroke-width="13" stroke-linecap="round"/>
      </g>
    </g>
    <text x="34" y="218" font-size="15" font-weight="650" fill="#587267">M-only app mark</text>
  </g>

  <g transform="translate(460 660)">
    <rect width="340" height="240" rx="34" fill="#FFFFFF" stroke="#DDE7E2" stroke-width="2"/>
    <text x="34" y="52" font-size="23" font-weight="800" fill="#0D3B2E">Dark surface</text>
    <g transform="translate(100 76) scale(0.31)">
      <rect width="430" height="318" rx="72" fill="#0D3B2E"/>
      <g transform="translate(24 28)">
        <path d="M72 262L104 54H154L122 262Z" fill="#F8FAF9" opacity="0.96"/>
        <path d="M121 262L153 54H202L170 262Z" fill="#CFE0DA"/>
        <path d="M137 262L223 78C229 66 247 66 253 78L303 180L356 54H404L315 262H271L236 181L194 262Z" fill="url(#goldFold)"/>
        <path d="M219 120L272 240L351 54H398L310 262H266L234 188L195 262H150Z" fill="#F8FAF9" opacity="0.96"/>
        <path d="M284 262L356 54H407L335 262Z" fill="#CFE0DA"/>
        <path d="M333 262L368 54H416L381 262Z" fill="#E9F2EF"/>
        <path d="M96 37H166" stroke="#B07D08" stroke-width="13" stroke-linecap="round"/>
        <path d="M344 37H414" stroke="#F5C518" stroke-width="13" stroke-linecap="round"/>
      </g>
    </g>
    <text x="34" y="218" font-size="15" font-weight="650" fill="#587267">Readable on deep green</text>
  </g>

  <g transform="translate(840 660)">
    <rect width="310" height="240" rx="34" fill="#FFFFFF" stroke="#DDE7E2" stroke-width="2"/>
    <text x="34" y="52" font-size="23" font-weight="800" fill="#0D3B2E">Small sizes</text>
    <g transform="translate(40 92) scale(0.17)">
      <rect width="430" height="318" rx="72" fill="#F8FAF9"/>
      <g transform="translate(24 28)">
        <path d="M72 262L104 54H154L122 262Z" fill="#0D3B2E"/>
        <path d="M121 262L153 54H202L170 262Z" fill="#1A6B4A"/>
        <path d="M137 262L223 78C229 66 247 66 253 78L303 180L356 54H404L315 262H271L236 181L194 262Z" fill="url(#goldFold)"/>
        <path d="M219 120L272 240L351 54H398L310 262H266L234 188L195 262H150Z" fill="#0D3B2E" opacity="0.98"/>
        <path d="M284 262L356 54H407L335 262Z" fill="url(#greenFold)"/>
        <path d="M333 262L368 54H416L381 262Z" fill="#0D3B2E"/>
        <path d="M96 37H166" stroke="#B07D08" stroke-width="13" stroke-linecap="round"/>
        <path d="M344 37H414" stroke="#F5C518" stroke-width="13" stroke-linecap="round"/>
      </g>
    </g>
    <g transform="translate(148 106) scale(0.115)">
      <rect width="430" height="318" rx="72" fill="#F8FAF9"/>
      <g transform="translate(24 28)">
        <path d="M72 262L104 54H154L122 262Z" fill="#0D3B2E"/>
        <path d="M121 262L153 54H202L170 262Z" fill="#1A6B4A"/>
        <path d="M137 262L223 78C229 66 247 66 253 78L303 180L356 54H404L315 262H271L236 181L194 262Z" fill="url(#goldFold)"/>
        <path d="M219 120L272 240L351 54H398L310 262H266L234 188L195 262H150Z" fill="#0D3B2E" opacity="0.98"/>
        <path d="M284 262L356 54H407L335 262Z" fill="url(#greenFold)"/>
        <path d="M333 262L368 54H416L381 262Z" fill="#0D3B2E"/>
        <path d="M96 37H166" stroke="#B07D08" stroke-width="13" stroke-linecap="round"/>
        <path d="M344 37H414" stroke="#F5C518" stroke-width="13" stroke-linecap="round"/>
      </g>
    </g>
    <g transform="translate(226 119) scale(0.078)">
      <rect width="430" height="318" rx="72" fill="#F8FAF9"/>
      <g transform="translate(24 28)">
        <path d="M72 262L104 54H154L122 262Z" fill="#0D3B2E"/>
        <path d="M121 262L153 54H202L170 262Z" fill="#1A6B4A"/>
        <path d="M137 262L223 78C229 66 247 66 253 78L303 180L356 54H404L315 262H271L236 181L194 262Z" fill="url(#goldFold)"/>
        <path d="M219 120L272 240L351 54H398L310 262H266L234 188L195 262H150Z" fill="#0D3B2E" opacity="0.98"/>
        <path d="M284 262L356 54H407L335 262Z" fill="url(#greenFold)"/>
        <path d="M333 262L368 54H416L381 262Z" fill="#0D3B2E"/>
        <path d="M96 37H166" stroke="#B07D08" stroke-width="13" stroke-linecap="round"/>
        <path d="M344 37H414" stroke="#F5C518" stroke-width="13" stroke-linecap="round"/>
      </g>
    </g>
    <text x="43" y="218" font-size="15" font-weight="650" fill="#587267">64px</text>
    <text x="151" y="218" font-size="15" font-weight="650" fill="#587267">48px</text>
    <text x="226" y="218" font-size="15" font-weight="650" fill="#587267">32px</text>
  </g>

  <g transform="translate(1190 660)">
    <rect width="330" height="240" rx="34" fill="#FFFFFF" stroke="#DDE7E2" stroke-width="2"/>
    <text x="34" y="52" font-size="23" font-weight="800" fill="#0D3B2E">Design notes</text>
    <text x="34" y="92" font-size="20" font-weight="500" fill="#426356">Keeps the M only.</text>
    <text x="34" y="126" font-size="20" font-weight="500" fill="#426356">Turned upright and wider.</text>
    <text x="34" y="160" font-size="20" font-weight="500" fill="#426356">Gold feels like a fold.</text>
    <text x="34" y="194" font-size="20" font-weight="500" fill="#426356">Preview only; no app swap.</text>
  </g>
</svg>
