<svg viewBox="0 0 1600 1000" xmlns="http://www.w3.org/2000/svg" role="img" aria-label="Manje M monogram logo concepts">
  <defs>
    <linearGradient id="green" x1="0" y1="0" x2="260" y2="260" gradientUnits="userSpaceOnUse">
      <stop offset="0" stop-color="#1A6B4A"/>
      <stop offset="1" stop-color="#0D3B2E"/>
    </linearGradient>
    <style>
      .h1 { font: 800 44px Inter, Arial, sans-serif; fill: #0D3B2E; }
      .body { font: 500 20px Inter, Arial, sans-serif; fill: #426356; }
      .label { font: 800 34px Inter, Arial, sans-serif; fill: #0D3B2E; }
      .title { font: 750 26px Inter, Arial, sans-serif; fill: #0D3B2E; }
      .word { font: 850 72px Inter, Arial, sans-serif; fill: #0D3B2E; letter-spacing: -2px; }
      .tag { font: 700 14px Inter, Arial, sans-serif; fill: #1A6B4A; letter-spacing: 2px; }
    </style>
  </defs>

  <rect width="1600" height="1000" fill="#F8FAF9"/>
  <text x="80" y="92" class="h1">Manje M Monogram Concepts</text>
  <text x="82" y="128" class="body">Premium M-first directions. No clipboard, no bars, no literal chart arrow.</text>

  <g transform="translate(80 180)">
    <rect width="680" height="330" rx="32" fill="#FFFFFF" stroke="#DDE7E2" stroke-width="2"/>
    <text x="36" y="58" class="label">A</text>
    <text x="86" y="56" class="title">Soft Wealth M</text>
    <text x="86" y="86" class="body">Rounded M, calm and premium, with one gold lift accent.</text>
    <g transform="translate(70 118)">
      <rect width="190" height="190" rx="46" fill="url(#green)"/>
      <path d="M42 145V57c0-18 12-31 30-31 12 0 22 7 28 18l36 70 36-70c6-11 16-18 28-18 18 0 30 13 30 31v88c0 17-12 29-28 29s-28-12-28-29V95l-22 43c-5 10-12 15-21 15s-16-5-21-15L88 95v50c0 17-12 29-28 29s-28-12-28-29z" fill="#F8FAF9"/>
      <path d="M94 132c34 18 69 7 96-42" fill="none" stroke="#F5C518" stroke-width="12" stroke-linecap="round"/>
      <circle cx="194" cy="84" r="8" fill="#F5C518"/>
    </g>
    <text x="318" y="188" class="word">Manje</text>
    <text x="322" y="226" class="tag">TRACK IT. BUDGET IT. GROW IT.</text>
  </g>

  <g transform="translate(840 180)">
    <rect width="680" height="330" rx="32" fill="#FFFFFF" stroke="#DDE7E2" stroke-width="2"/>
    <text x="36" y="58" class="label">B</text>
    <text x="86" y="56" class="title">Gold Valley M</text>
    <text x="86" y="86" class="body">The M valley becomes a subtle upward moment.</text>
    <g transform="translate(70 118)">
      <rect width="190" height="190" rx="46" fill="#0D3B2E"/>
      <path d="M40 145V58c0-18 13-32 31-32 12 0 23 7 29 19l36 70 36-70c6-12 17-19 29-19 18 0 31 14 31 32v87c0 17-12 29-28 29s-28-12-28-29V96l-23 44c-5 10-12 15-21 15s-16-5-21-15L88 96v49c0 17-12 29-28 29s-28-12-28-29z" fill="#F8FAF9"/>
      <path d="M114 112l22 31 43-68" fill="none" stroke="#F5C518" stroke-width="13" stroke-linecap="round" stroke-linejoin="round"/>
    </g>
    <text x="318" y="188" class="word">Manje</text>
    <text x="322" y="226" class="tag">TRACK IT. BUDGET IT. GROW IT.</text>
  </g>

  <g transform="translate(80 590)">
    <rect width="680" height="330" rx="32" fill="#FFFFFF" stroke="#DDE7E2" stroke-width="2"/>
    <text x="36" y="58" class="label">C</text>
    <text x="86" y="56" class="title">Pillar M</text>
    <text x="86" y="86" class="body">Strong, bank-grade M with a small gold progress cut.</text>
    <g transform="translate(70 118)">
      <rect width="190" height="190" rx="40" fill="#0D3B2E"/>
      <path d="M41 151V52c0-15 10-26 25-26 10 0 19 6 24 16l43 83 43-83c5-10 14-16 24-16 15 0 25 11 25 26v99c0 15-10 25-25 25s-25-10-25-25V95l-24 47c-5 10-12 15-21 15s-16-5-21-15L85 95v56c0 15-10 25-25 25s-25-10-25-25z" fill="#F8FAF9"/>
      <rect x="124" y="123" width="52" height="14" rx="7" fill="#F5C518"/>
      <circle cx="184" cy="130" r="8" fill="#F5C518"/>
    </g>
    <text x="318" y="188" class="word">Manje</text>
    <text x="322" y="226" class="tag">TRACK IT. BUDGET IT. GROW IT.</text>
  </g>

  <g transform="translate(840 590)">
    <rect width="680" height="330" rx="32" fill="#FFFFFF" stroke="#DDE7E2" stroke-width="2"/>
    <text x="36" y="58" class="label">D</text>
    <text x="86" y="56" class="title">Wordmark M Signature</text>
    <text x="86" y="86" class="body">The M leads the identity; the gold accent stays in the word.</text>
    <g transform="translate(70 124)">
      <text x="0" y="86" class="word">Manje</text>
      <path d="M12 102c34 28 74 26 107-8" fill="none" stroke="#F5C518" stroke-width="10" stroke-linecap="round"/>
      <circle cx="361" cy="40" r="9" fill="#F5C518"/>
      <text x="4" y="128" class="tag">TRACK IT. BUDGET IT. GROW IT.</text>
    </g>
    <g transform="translate(526 136)">
      <rect width="92" height="92" rx="22" fill="#0D3B2E"/>
      <path d="M20 70V28c0-9 6-16 15-16 6 0 11 4 14 9l18 35 18-35c3-5 8-9 14-9 9 0 15 7 15 16v42c0 8-6 14-13 14s-13-6-13-14V46L77 67c-2 5-6 7-10 7s-8-2-10-7L46 46v24c0 8-6 14-13 14s-13-6-13-14z" fill="#F8FAF9"/>
      <path d="M45 67c16 11 31 7 44-15" fill="none" stroke="#F5C518" stroke-width="6" stroke-linecap="round"/>
    </g>
  </g>
</svg>
