<svg viewBox="0 0 1600 1000" xmlns="http://www.w3.org/2000/svg" role="img" aria-label="Manje polished abstract M badge logo concept" font-family="Arial, sans-serif">
  <defs>
    <linearGradient id="gold" x1="110" y1="260" x2="365" y2="82" gradientUnits="userSpaceOnUse">
      <stop offset="0" stop-color="#B07D08"/>
      <stop offset="0.62" stop-color="#F5C518"/>
      <stop offset="1" stop-color="#FFE37A"/>
    </linearGradient>
    <filter id="softShadow" x="-20%" y="-20%" width="140%" height="140%">
      <feDropShadow dx="0" dy="14" stdDeviation="18" flood-color="#0D3B2E" flood-opacity="0.10"/>
    </filter>
  </defs>

  <rect width="1600" height="1000" fill="#F8FAF9"/>
  <text x="80" y="94" font-size="46" font-weight="800" fill="#0D3B2E">Manje Polished Clothing-Badge Logo</text>
  <text x="82" y="130" font-size="20" font-weight="500" fill="#426356">A cleaner vector version of the mascot clothing mark: compact, angular, and now more clearly shaped as an M.</text>

  <g transform="translate(80 176)">
    <rect width="1440" height="430" rx="38" fill="#FFFFFF" stroke="#DDE7E2" stroke-width="2"/>
    <text x="56" y="64" font-size="23" font-weight="800" fill="#0D3B2E">Primary logo lockup</text>
    <text x="56" y="97" font-size="20" font-weight="500" fill="#426356">The badge keeps the pasted clothing-pin feel, with a stronger left stem, center valley, and right stem.</text>

    <g filter="url(#softShadow)">
      <g transform="translate(86 130) scale(0.62)"><rect width="420" height="420" rx="96" fill="#F8FAF9"/><g transform="translate(0 46)"><path d="M92 82h46l-34 178H58z" fill="#0D3B2E"/>
<path d="M132 82h46l-34 178H98z" fill="#1A6B4A"/>
<path d="M111 260L186 100c5-11 20-11 25 0l37 84l79-102h43L266 260h-42l-42-96l-46 96z" fill="url(#gold)"/>
<path d="M202 116l42 96l71-130h42L264 260h-44l-41-95z" fill="#0D3B2E" opacity="0.96"/>
<path d="M242 260L321 82h46l-78 178z" fill="#1A6B4A"/>
<path d="M314 82h45l-33 178h-45z" fill="#0D3B2E"/>
<path d="M93 65h66" stroke="#B07D08" stroke-width="13" stroke-linecap="round"/>
<path d="M292 65h66" stroke="#F5C518" stroke-width="13" stroke-linecap="round"/></g></g>
    </g>

    <g transform="translate(390 154)">
      <text x="0" y="138" font-size="132" font-weight="800" fill="#0D3B2E" letter-spacing="-5">Manje</text>
      <text x="6" y="191" font-size="16" font-weight="750" fill="#1A6B4A" letter-spacing="2.1">SPEND CLEARLY. SAVE CONFIDENTLY.</text>
    </g>

    <g transform="translate(1152 112)">
      <rect width="220" height="236" rx="28" fill="#0D3B2E"/>
      <text x="28" y="48" font-size="22" font-weight="800" fill="#F8FAF9">Clothing pin</text>
      <text x="28" y="78" font-size="14" font-weight="700" fill="#BFD3CB">pronounced M</text>
      <g transform="translate(31 100) scale(0.40)"><path d="M92 82h46l-34 178H58z" fill="#0D3B2E"/>
<path d="M132 82h46l-34 178H98z" fill="#1A6B4A"/>
<path d="M111 260L186 100c5-11 20-11 25 0l37 84l79-102h43L266 260h-42l-42-96l-46 96z" fill="url(#gold)"/>
<path d="M202 116l42 96l71-130h42L264 260h-44l-41-95z" fill="#0D3B2E" opacity="0.96"/>
<path d="M242 260L321 82h46l-78 178z" fill="#1A6B4A"/>
<path d="M314 82h45l-33 178h-45z" fill="#0D3B2E"/>
<path d="M93 65h66" stroke="#B07D08" stroke-width="13" stroke-linecap="round"/>
<path d="M292 65h66" stroke="#F5C518" stroke-width="13" stroke-linecap="round"/></g>
    </g>
  </g>

  <g transform="translate(80 660)">
    <rect width="340" height="240" rx="34" fill="#FFFFFF" stroke="#DDE7E2" stroke-width="2"/>
    <text x="34" y="52" font-size="23" font-weight="800" fill="#0D3B2E">App icon check</text>
    <g transform="translate(112 75) scale(0.28)"><rect width="420" height="420" rx="96" fill="#F8FAF9"/><g transform="translate(0 46)"><path d="M92 82h46l-34 178H58z" fill="#0D3B2E"/>
<path d="M132 82h46l-34 178H98z" fill="#1A6B4A"/>
<path d="M111 260L186 100c5-11 20-11 25 0l37 84l79-102h43L266 260h-42l-42-96l-46 96z" fill="url(#gold)"/>
<path d="M202 116l42 96l71-130h42L264 260h-44l-41-95z" fill="#0D3B2E" opacity="0.96"/>
<path d="M242 260L321 82h46l-78 178z" fill="#1A6B4A"/>
<path d="M314 82h45l-33 178h-45z" fill="#0D3B2E"/>
<path d="M93 65h66" stroke="#B07D08" stroke-width="13" stroke-linecap="round"/>
<path d="M292 65h66" stroke="#F5C518" stroke-width="13" stroke-linecap="round"/></g></g>
    <text x="34" y="218" font-size="15" font-weight="650" fill="#587267">1024px icon direction</text>
  </g>

  <g transform="translate(460 660)">
    <rect width="340" height="240" rx="34" fill="#FFFFFF" stroke="#DDE7E2" stroke-width="2"/>
    <text x="34" y="52" font-size="23" font-weight="800" fill="#0D3B2E">Dark surface</text>
    <g transform="translate(112 75) scale(0.28)"><rect width="420" height="420" rx="96" fill="#0D3B2E"/><g transform="translate(0 46)"><path d="M92 82h46l-34 178H58z" fill="#F8FAF9" opacity="0.96"/>
<path d="M132 82h46l-34 178H98z" fill="#CFE0DA"/>
<path d="M111 260L186 100c5-11 20-11 25 0l37 84l79-102h43L266 260h-42l-42-96l-46 96z" fill="url(#gold)"/>
<path d="M202 116l42 96l71-130h42L264 260h-44l-41-95z" fill="#F8FAF9" opacity="0.96"/>
<path d="M242 260L321 82h46l-78 178z" fill="#CFE0DA"/>
<path d="M314 82h45l-33 178h-45z" fill="#E9F2EF"/>
<path d="M93 65h66" stroke="#B07D08" stroke-width="13" stroke-linecap="round"/>
<path d="M292 65h66" stroke="#F5C518" stroke-width="13" stroke-linecap="round"/></g></g>
    <text x="34" y="218" font-size="15" font-weight="650" fill="#587267">Readable on deep green</text>
  </g>

  <g transform="translate(840 660)">
    <rect width="310" height="240" rx="34" fill="#FFFFFF" stroke="#DDE7E2" stroke-width="2"/>
    <text x="34" y="52" font-size="23" font-weight="800" fill="#0D3B2E">Small sizes</text>
    <g transform="translate(42 88) scale(0.18)"><rect width="420" height="420" rx="96" fill="#F8FAF9"/><g transform="translate(0 46)"><path d="M92 82h46l-34 178H58z" fill="#0D3B2E"/>
<path d="M132 82h46l-34 178H98z" fill="#1A6B4A"/>
<path d="M111 260L186 100c5-11 20-11 25 0l37 84l79-102h43L266 260h-42l-42-96l-46 96z" fill="url(#gold)"/>
<path d="M202 116l42 96l71-130h42L264 260h-44l-41-95z" fill="#0D3B2E" opacity="0.96"/>
<path d="M242 260L321 82h46l-78 178z" fill="#1A6B4A"/>
<path d="M314 82h45l-33 178h-45z" fill="#0D3B2E"/>
<path d="M93 65h66" stroke="#B07D08" stroke-width="13" stroke-linecap="round"/>
<path d="M292 65h66" stroke="#F5C518" stroke-width="13" stroke-linecap="round"/></g></g>
    <g transform="translate(150 103) scale(0.12)"><rect width="420" height="420" rx="96" fill="#F8FAF9"/><g transform="translate(0 46)"><path d="M92 82h46l-34 178H58z" fill="#0D3B2E"/>
<path d="M132 82h46l-34 178H98z" fill="#1A6B4A"/>
<path d="M111 260L186 100c5-11 20-11 25 0l37 84l79-102h43L266 260h-42l-42-96l-46 96z" fill="url(#gold)"/>
<path d="M202 116l42 96l71-130h42L264 260h-44l-41-95z" fill="#0D3B2E" opacity="0.96"/>
<path d="M242 260L321 82h46l-78 178z" fill="#1A6B4A"/>
<path d="M314 82h45l-33 178h-45z" fill="#0D3B2E"/>
<path d="M93 65h66" stroke="#B07D08" stroke-width="13" stroke-linecap="round"/>
<path d="M292 65h66" stroke="#F5C518" stroke-width="13" stroke-linecap="round"/></g></g>
    <g transform="translate(226 116) scale(0.08)"><rect width="420" height="420" rx="96" fill="#F8FAF9"/><g transform="translate(0 46)"><path d="M92 82h46l-34 178H58z" fill="#0D3B2E"/>
<path d="M132 82h46l-34 178H98z" fill="#1A6B4A"/>
<path d="M111 260L186 100c5-11 20-11 25 0l37 84l79-102h43L266 260h-42l-42-96l-46 96z" fill="url(#gold)"/>
<path d="M202 116l42 96l71-130h42L264 260h-44l-41-95z" fill="#0D3B2E" opacity="0.96"/>
<path d="M242 260L321 82h46l-78 178z" fill="#1A6B4A"/>
<path d="M314 82h45l-33 178h-45z" fill="#0D3B2E"/>
<path d="M93 65h66" stroke="#B07D08" stroke-width="13" stroke-linecap="round"/>
<path d="M292 65h66" stroke="#F5C518" stroke-width="13" stroke-linecap="round"/></g></g>
    <text x="43" y="218" font-size="15" font-weight="650" fill="#587267">64px</text>
    <text x="151" y="218" font-size="15" font-weight="650" fill="#587267">48px</text>
    <text x="226" y="218" font-size="15" font-weight="650" fill="#587267">32px</text>
  </g>

  <g transform="translate(1190 660)">
    <rect width="330" height="240" rx="34" fill="#FFFFFF" stroke="#DDE7E2" stroke-width="2"/>
    <text x="34" y="52" font-size="23" font-weight="800" fill="#0D3B2E">Design notes</text>
    <text x="34" y="92" font-size="20" font-weight="500" fill="#426356">Still compact and badge-like.</text>
    <text x="34" y="126" font-size="20" font-weight="500" fill="#426356">M shape is more legible.</text>
    <text x="34" y="160" font-size="20" font-weight="500" fill="#426356">Gold stays as fabric fold.</text>
    <text x="34" y="194" font-size="20" font-weight="500" fill="#426356">Built as editable SVG.</text>
  </g>
</svg>