<svg viewBox="0 0 1600 1000" xmlns="http://www.w3.org/2000/svg" role="img" aria-label="Nje wordmark logo concept inspired by the Manje mascot clothing mark" font-family="Arial, sans-serif">
  <defs>
    <linearGradient id="goldFold" x1="120" y1="270" x2="330" y2="70" gradientUnits="userSpaceOnUse">
      <stop offset="0" stop-color="#B07D08"/>
      <stop offset="0.58" stop-color="#F5C518"/>
      <stop offset="1" stop-color="#FFE37A"/>
    </linearGradient>
    <linearGradient id="greenFold" x1="70" y1="70" x2="330" y2="270" gradientUnits="userSpaceOnUse">
      <stop offset="0" stop-color="#1A6B4A"/>
      <stop offset="1" stop-color="#0D3B2E"/>
    </linearGradient>
    <filter id="softShadow" x="-20%" y="-20%" width="140%" height="140%">
      <feDropShadow dx="0" dy="14" stdDeviation="18" flood-color="#0D3B2E" flood-opacity="0.10"/>
    </filter>
  </defs>

  <rect width="1600" height="1000" fill="#F8FAF9"/>
  <text x="80" y="94" font-size="46" font-weight="800" fill="#0D3B2E">Nje Wordmark Clothing-Mark Concept</text>
  <text x="82" y="130" font-size="20" font-weight="500" fill="#426356">A short-form brand exploration: a folded-ribbon N built from the mascot clothing badge language.</text>

  <g transform="translate(80 176)">
    <rect width="1440" height="430" rx="38" fill="#FFFFFF" stroke="#DDE7E2" stroke-width="2"/>
    <text x="56" y="64" font-size="23" font-weight="800" fill="#0D3B2E">Primary Nje wordmark</text>
    <text x="56" y="97" font-size="20" font-weight="500" fill="#426356">The N carries the brand pattern; the j and e stay quiet, premium, and readable.</text>

    <g filter="url(#softShadow)" transform="translate(110 135) scale(0.70)">
      <rect width="365" height="300" rx="64" fill="#F8FAF9"/>
      <g transform="translate(0 12)">
        <path d="M72 252L104 58H154L122 252Z" fill="#0D3B2E"/>
        <path d="M122 252L154 58H198L166 252Z" fill="#1A6B4A"/>
        <path d="M134 252L226 72C232 61 249 61 255 73L318 195L288 252L240 154L190 252Z" fill="url(#goldFold)"/>
        <path d="M236 91L287 193L337 58H381L306 252H264L216 151Z" fill="#0D3B2E" opacity="0.97"/>
        <path d="M285 252L337 58H386L334 252Z" fill="url(#greenFold)"/>
        <path d="M92 42H159" stroke="#B07D08" stroke-width="13" stroke-linecap="round"/>
        <path d="M318 42H384" stroke="#F5C518" stroke-width="13" stroke-linecap="round"/>
      </g>
    </g>

    <g transform="translate(410 144)">
      <text x="0" y="160" font-size="178" font-weight="800" fill="#0D3B2E" letter-spacing="-8">je</text>
      <circle cx="35" cy="36" r="10" fill="#F5C518"/>
      <path d="M12 186C34 199 62 194 82 170" fill="none" stroke="#F5C518" stroke-width="8" stroke-linecap="round"/>
      <text x="4" y="216" font-size="16" font-weight="750" fill="#1A6B4A" letter-spacing="2.1">SHORT-FORM BRAND EXPLORATION</text>
    </g>

    <g transform="translate(972 112)">
      <rect width="360" height="236" rx="28" fill="#0D3B2E"/>
      <text x="30" y="48" font-size="22" font-weight="800" fill="#F8FAF9">Standalone N mark</text>
      <text x="30" y="78" font-size="14" font-weight="700" fill="#BFD3CB">icon and clothing-pin scale</text>
      <g transform="translate(88 96) scale(0.42)">
        <path d="M72 252L104 58H154L122 252Z" fill="#F8FAF9" opacity="0.96"/>
        <path d="M122 252L154 58H198L166 252Z" fill="#CFE0DA"/>
        <path d="M134 252L226 72C232 61 249 61 255 73L318 195L288 252L240 154L190 252Z" fill="url(#goldFold)"/>
        <path d="M236 91L287 193L337 58H381L306 252H264L216 151Z" fill="#F8FAF9" opacity="0.96"/>
        <path d="M285 252L337 58H386L334 252Z" fill="#CFE0DA"/>
        <path d="M92 42H159" stroke="#B07D08" stroke-width="13" stroke-linecap="round"/>
        <path d="M318 42H384" stroke="#F5C518" stroke-width="13" stroke-linecap="round"/>
      </g>
    </g>
  </g>

  <g transform="translate(80 660)">
    <rect width="340" height="240" rx="34" fill="#FFFFFF" stroke="#DDE7E2" stroke-width="2"/>
    <text x="34" y="52" font-size="23" font-weight="800" fill="#0D3B2E">App icon check</text>
    <g transform="translate(109 72) scale(0.32)">
      <rect width="365" height="300" rx="64" fill="#F8FAF9"/>
      <g transform="translate(0 12)">
        <path d="M72 252L104 58H154L122 252Z" fill="#0D3B2E"/>
        <path d="M122 252L154 58H198L166 252Z" fill="#1A6B4A"/>
        <path d="M134 252L226 72C232 61 249 61 255 73L318 195L288 252L240 154L190 252Z" fill="url(#goldFold)"/>
        <path d="M236 91L287 193L337 58H381L306 252H264L216 151Z" fill="#0D3B2E" opacity="0.97"/>
        <path d="M285 252L337 58H386L334 252Z" fill="url(#greenFold)"/>
        <path d="M92 42H159" stroke="#B07D08" stroke-width="13" stroke-linecap="round"/>
        <path d="M318 42H384" stroke="#F5C518" stroke-width="13" stroke-linecap="round"/>
      </g>
    </g>
    <text x="34" y="218" font-size="15" font-weight="650" fill="#587267">Standalone N option</text>
  </g>

  <g transform="translate(460 660)">
    <rect width="340" height="240" rx="34" fill="#FFFFFF" stroke="#DDE7E2" stroke-width="2"/>
    <text x="34" y="52" font-size="23" font-weight="800" fill="#0D3B2E">Dark surface</text>
    <g transform="translate(109 72) scale(0.32)">
      <rect width="365" height="300" rx="64" fill="#0D3B2E"/>
      <g transform="translate(0 12)">
        <path d="M72 252L104 58H154L122 252Z" fill="#F8FAF9" opacity="0.96"/>
        <path d="M122 252L154 58H198L166 252Z" fill="#CFE0DA"/>
        <path d="M134 252L226 72C232 61 249 61 255 73L318 195L288 252L240 154L190 252Z" fill="url(#goldFold)"/>
        <path d="M236 91L287 193L337 58H381L306 252H264L216 151Z" fill="#F8FAF9" opacity="0.96"/>
        <path d="M285 252L337 58H386L334 252Z" fill="#CFE0DA"/>
        <path d="M92 42H159" stroke="#B07D08" stroke-width="13" stroke-linecap="round"/>
        <path d="M318 42H384" stroke="#F5C518" stroke-width="13" stroke-linecap="round"/>
      </g>
    </g>
    <text x="34" y="218" font-size="15" font-weight="650" fill="#587267">Readable on deep green</text>
  </g>

  <g transform="translate(840 660)">
    <rect width="310" height="240" rx="34" fill="#FFFFFF" stroke="#DDE7E2" stroke-width="2"/>
    <text x="34" y="52" font-size="23" font-weight="800" fill="#0D3B2E">Small sizes</text>
    <g transform="translate(42 88) scale(0.18)">
      <rect width="365" height="300" rx="64" fill="#F8FAF9"/>
      <g transform="translate(0 12)">
        <path d="M72 252L104 58H154L122 252Z" fill="#0D3B2E"/>
        <path d="M122 252L154 58H198L166 252Z" fill="#1A6B4A"/>
        <path d="M134 252L226 72C232 61 249 61 255 73L318 195L288 252L240 154L190 252Z" fill="url(#goldFold)"/>
        <path d="M236 91L287 193L337 58H381L306 252H264L216 151Z" fill="#0D3B2E" opacity="0.97"/>
        <path d="M285 252L337 58H386L334 252Z" fill="url(#greenFold)"/>
        <path d="M92 42H159" stroke="#B07D08" stroke-width="13" stroke-linecap="round"/>
        <path d="M318 42H384" stroke="#F5C518" stroke-width="13" stroke-linecap="round"/>
      </g>
    </g>
    <g transform="translate(150 103) scale(0.12)">
      <rect width="365" height="300" rx="64" fill="#F8FAF9"/>
      <g transform="translate(0 12)">
        <path d="M72 252L104 58H154L122 252Z" fill="#0D3B2E"/>
        <path d="M122 252L154 58H198L166 252Z" fill="#1A6B4A"/>
        <path d="M134 252L226 72C232 61 249 61 255 73L318 195L288 252L240 154L190 252Z" fill="url(#goldFold)"/>
        <path d="M236 91L287 193L337 58H381L306 252H264L216 151Z" fill="#0D3B2E" opacity="0.97"/>
        <path d="M285 252L337 58H386L334 252Z" fill="url(#greenFold)"/>
        <path d="M92 42H159" stroke="#B07D08" stroke-width="13" stroke-linecap="round"/>
        <path d="M318 42H384" stroke="#F5C518" stroke-width="13" stroke-linecap="round"/>
      </g>
    </g>
    <g transform="translate(226 116) scale(0.08)">
      <rect width="365" height="300" rx="64" fill="#F8FAF9"/>
      <g transform="translate(0 12)">
        <path d="M72 252L104 58H154L122 252Z" fill="#0D3B2E"/>
        <path d="M122 252L154 58H198L166 252Z" fill="#1A6B4A"/>
        <path d="M134 252L226 72C232 61 249 61 255 73L318 195L288 252L240 154L190 252Z" fill="url(#goldFold)"/>
        <path d="M236 91L287 193L337 58H381L306 252H264L216 151Z" fill="#0D3B2E" opacity="0.97"/>
        <path d="M285 252L337 58H386L334 252Z" fill="url(#greenFold)"/>
        <path d="M92 42H159" stroke="#B07D08" stroke-width="13" stroke-linecap="round"/>
        <path d="M318 42H384" stroke="#F5C518" stroke-width="13" stroke-linecap="round"/>
      </g>
    </g>
    <text x="43" y="218" font-size="15" font-weight="650" fill="#587267">64px</text>
    <text x="151" y="218" font-size="15" font-weight="650" fill="#587267">48px</text>
    <text x="226" y="218" font-size="15" font-weight="650" fill="#587267">32px</text>
  </g>

  <g transform="translate(1190 660)">
    <rect width="330" height="240" rx="34" fill="#FFFFFF" stroke="#DDE7E2" stroke-width="2"/>
    <text x="34" y="52" font-size="23" font-weight="800" fill="#0D3B2E">Design notes</text>
    <text x="34" y="92" font-size="20" font-weight="500" fill="#426356">Nje reads as the logo text.</text>
    <text x="34" y="126" font-size="20" font-weight="500" fill="#426356">N inherits the clothing pin.</text>
    <text x="34" y="160" font-size="20" font-weight="500" fill="#426356">Gold is a fabric fold, not arrow.</text>
    <text x="34" y="194" font-size="20" font-weight="500" fill="#426356">Preview only; no app swap.</text>
  </g>
</svg>
